<svg fill="none" height="24" viewBox="0 0 24 24" width="24" xmlns="http://www.w3.org/2000/svg"><g fill="#5f6368"><path d="M14.948 22.997h-.35c-1.2 0-2.25-.5-3.05-1.5-2.25-2.75-5.3-7.65-6.05-9.05-.75-1.35-1.15-2.8-1.15-4.15-.05-4.1 3.15-7.3 7.2-7.3 3.75 0 6.75 2.65 7.2 6.35.05.55-.35 1.05-.9 1.1s-1.05-.35-1.1-.9c-.3-2.6-2.5-4.55-5.2-4.55-2.95 0-5.25 2.3-5.25 5.25 0 1 .35 2.15.9 3.2.65 1.2 3.65 6.1 5.85 8.75.45.55.95.8 1.55.8h.1c.95.05 1.65-.25 2.05-1.05.25-.5.9-.65 1.35-.4.5.25.65.9.4 1.35-.75 1.4-2 2.1-3.55 2.1z"/><path d="M14.898 16.848a3.5 3.5 0 100-7 3.5 3.5 0 000 7zM8.55 8.6h-.2c-.4-.1-.65-.5-.55-.9.45-1.75 2.05-3 3.9-3 1.15 0 2.2.45 3 1.3.3.3.25.8-.05 1.05-.3.3-.8.25-1.05-.05-.5-.5-1.15-.8-1.9-.8-1.2 0-2.15.75-2.45 1.85-.1.35-.4.55-.7.55z"/></g></svg>