<svg fill="none" height="37" viewBox="0 0 36 37" width="36" xmlns="http://www.w3.org/2000/svg"><clipPath id="a"><path d="M4.5.995h27.871v36H4.5z"/></clipPath><g clip-path="url(#a)" clip-rule="evenodd" fill-rule="evenodd"><path d="M31.997 3.829V34.15a2.324 2.324 0 01-2.324 2.324H7.205a2.324 2.324 0 01-2.324-2.324V3.83a2.324 2.324 0 012.322-2.324h22.47a2.323 2.323 0 012.323 2.324" fill="#4caf50"/><path d="M26.068 27.826a2.162 2.162 0 110 4.324 2.162 2.162 0 01.002-4.324" fill="#c5e1a5"/><path d="M26.068 21.227a2.162 2.162 0 11-.001 4.325 2.162 2.162 0 01.003-4.325zm0-6.942a2.163 2.163 0 11.099 4.325 2.163 2.163 0 01-.097-4.325" fill="#9ccc65"/><path d="M18.439 27.826a2.162 2.162 0 110 4.324 2.162 2.162 0 010-4.324" fill="#c5e1a5"/><path d="M18.439 21.227a2.162 2.162 0 110 4.325 2.162 2.162 0 010-4.325zm0-6.942a2.16 2.16 0 012.043 3 2.162 2.162 0 11-2.043-3" fill="#9ccc65"/><path d="M10.81 27.825a2.163 2.163 0 110 4.326 2.163 2.163 0 010-4.326" fill="#c5e1a5"/><path d="M10.812 21.227a2.162 2.162 0 110 4.325 2.162 2.162 0 010-4.325zm0-6.942a2.163 2.163 0 11.1 4.324 2.163 2.163 0 01-.1-4.324zm-2.164-4.14h19.587V5.829H8.648z" fill="#9ccc65"/></g></svg>