<svg width="32" height="32" viewBox="0 0 32 32" fill="none" xmlns="http://www.w3.org/2000/svg"><path d="M13.455 12.753a1.562 1.562 0 00-.192-1.003 1.54 1.54 0 00-.764-.665 1.047 1.047 0 01-.585-.584 1.54 1.54 0 00-.664-.764 1.54 1.54 0 00-1.003-.192 1.025 1.025 0 01-.782-.21 1.56 1.56 0 00-1.93 0 1.01 1.01 0 01-.782.21 1.56 1.56 0 00-1.668.956 1.047 1.047 0 01-.584.584 1.561 1.561 0 00-.957 1.668 1.02 1.02 0 01-.209.782 1.56 1.56 0 000 1.93c.174.22.25.504.21.781-.05.345.017.701.192 1.004.175.303.44.533.764.664.269.109.476.316.584.585a1.561 1.561 0 001.668.956c.277-.04.562.035.782.21a1.56 1.56 0 001.93 0c.22-.174.504-.25.782-.21.349.052.696-.015 1.003-.192a1.54 1.54 0 00.665-.764c.108-.269.316-.476.584-.584a1.56 1.56 0 00.956-1.668c-.04-.278.036-.562.21-.782a1.56 1.56 0 000-1.93 1.023 1.023 0 01-.21-.782z" fill="#808487"/><path d="M28.17 25.5c.02-.42.124-.828.288-1.294.319-.908.752-1.396.427-2.702-.288-1.154-.864-1.822-1.728-2.219-1.08-.496-2.351-.285-3.238.18a2.46 2.46 0 01-.179.087c-.408.15-.828.234-1.24.24a3.754 3.754 0 01-1.24-.24 2.64 2.64 0 01-.18-.086c-.885-.466-2.157-.677-3.237-.18-.864.396-1.44 1.063-1.727 2.217-.326 1.306.107 1.795.426 2.702.164.467.268.875.288 1.295-.02.42-.124.828-.288 1.294-.319.908-.752 1.397-.426 2.703.287 1.154.863 1.821 1.727 2.218 1.08.496 2.352.285 3.238-.18.059-.031.118-.06.179-.086a3.77 3.77 0 011.24-.242c.412.007.832.09 1.24.242.06.026.12.054.179.085.886.466 2.158.677 3.238.18.864-.396 1.44-1.063 1.727-2.217.325-1.306-.108-1.795-.426-2.702-.164-.467-.267-.875-.288-1.295z" fill="#3C4043"/><path d="M20.586 1.414a2 2 0 012.828 0L26.95 4.95a2 2 0 010 2.828l-3.536 3.536a2 2 0 01-2.828 0L17.05 7.778a2 2 0 010-2.828l3.536-3.536z" fill="#C5CBD0"/></svg>