<svg width="48" height="48" viewBox="0 0 48 48" fill="none" xmlns="http://www.w3.org/2000/svg"><rect x="4.5" y="29.5" width="39" height="16" rx="2.5" stroke="#3C4043"/><path d="M16.023 24.448c-1.307 0-2.474-.298-3.5-.896a6.475 6.475 0 01-2.38-2.436 6.53 6.53 0 01-.84-3.22c0-1.101.214-2.137.644-3.108.43-.99 1.073-2.1 1.932-3.332l4.816-7.112 2.436 1.68-4.368 6.076.112.112c.504-.298 1.138-.448 1.904-.448.97 0 1.913.27 2.828.812a6.208 6.208 0 012.212 2.24c.578.934.868 1.988.868 3.164a6.027 6.027 0 01-.924 3.248 6.769 6.769 0 01-2.464 2.352 6.468 6.468 0 01-3.276.868zm-.028-2.884c.634 0 1.232-.15 1.792-.448.56-.317.998-.746 1.316-1.288a3.38 3.38 0 00.504-1.82c0-.672-.168-1.278-.504-1.82a3.237 3.237 0 00-1.316-1.288 3.578 3.578 0 00-1.792-.476 3.58 3.58 0 00-1.792.476 3.426 3.426 0 00-1.344 1.288 3.381 3.381 0 00-.504 1.82c0 .672.158 1.279.476 1.82.336.542.784.97 1.344 1.288.56.299 1.166.448 1.82.448zm12.406 2.596c-.687 0-1.32-.16-1.9-.48a3.721 3.721 0 01-1.37-1.34 3.693 3.693 0 01-.51-1.92c0-.707.17-1.343.51-1.91a3.62 3.62 0 011.37-1.34 3.806 3.806 0 011.9-.49c.56 0 1.07.1 1.53.3.467.194.863.47 1.19.83l-.93.91a2.42 2.42 0 00-.8-.57 2.482 2.482 0 00-1.01-.19c-.433 0-.837.104-1.21.31-.367.207-.66.497-.88.87-.213.373-.32.8-.32 1.28s.11.907.33 1.28c.22.373.513.663.88.87.373.207.78.31 1.22.31.66 0 1.21-.197 1.65-.59a1.72 1.72 0 00.34-.46c.1-.186.173-.39.22-.61h-2.24v-1.15h3.51a2.6 2.6 0 01.07.63c0 .474-.073.913-.22 1.32-.14.407-.357.764-.65 1.07a3.33 3.33 0 01-1.17.8c-.447.18-.95.27-1.51.27zm4.793-7.32h2.8c.4 0 .766.084 1.1.25.34.167.606.393.8.68.193.287.29.6.29.94 0 .36-.09.674-.27.94a1.72 1.72 0 01-.69.6v.08c.373.134.67.347.89.64.22.287.33.634.33 1.04 0 .393-.107.743-.32 1.05-.207.3-.49.534-.85.7-.354.16-.747.24-1.18.24h-2.9v-7.16zm2.7 2.92c.3 0 .536-.08.71-.24a.826.826 0 00.26-.62c0-.24-.087-.44-.26-.6-.167-.166-.39-.25-.67-.25h-1.39v1.71h1.35zm.15 3.01c.326 0 .58-.083.76-.25a.873.873 0 00.28-.67.873.873 0 00-.28-.67c-.187-.173-.454-.26-.8-.26h-1.46v1.85h1.5zM13.57 33.84h2.61c.466 0 .88.096 1.24.29.366.193.65.463.85.81.2.34.3.727.3 1.16 0 .46-.147.87-.44 1.23a2.46 2.46 0 01-1.09.77l-.01.07 1.92 2.75V41H17.4l-1.85-2.69h-.63V41h-1.35v-7.16zm2.6 3.23c.306 0 .556-.093.75-.28a.93.93 0 00.3-.71.971.971 0 00-.28-.7c-.18-.194-.43-.29-.75-.29h-1.27v1.98h1.25zm5.738-3.23h1.54l2.69 7.16h-1.49l-.59-1.71h-2.75l-.6 1.71h-1.49l2.69-7.16zm1.71 4.21l-.64-1.8-.26-.86h-.08l-.26.86-.64 1.8h1.88zm3.447-4.21h1.74l1.9 5.03h.08l1.91-5.03h1.74V41h-1.34v-3.53l.08-1.19h-.08L31.275 41h-1.05l-1.83-4.72h-.08l.08 1.19V41h-1.33v-7.16z" fill="#3C4043"/></svg>